<svg xmlns="http://www.w3.org/2000/svg" xmlns:xlink="http://www.w3.org/1999/xlink" width="500" zoomAndPan="magnify" viewBox="0 0 375 89.999999" height="120" preserveAspectRatio="xMidYMid meet" version="1.0"><defs><g/><clipPath id="22b38e5b9e"><path d="M 37.171875 13.203125 L 97.269531 13.203125 L 97.269531 27.730469 L 37.171875 27.730469 Z M 37.171875 13.203125 " clip-rule="nonzero"/></clipPath><clipPath id="0cc6a332cd"><path d="M 44.4375 13.203125 L 89.96875 13.203125 C 93.980469 13.203125 97.234375 16.457031 97.234375 20.46875 C 97.234375 24.480469 93.980469 27.730469 89.96875 27.730469 L 44.4375 27.730469 C 40.425781 27.730469 37.171875 24.480469 37.171875 20.46875 C 37.171875 16.457031 40.425781 13.203125 44.4375 13.203125 Z M 44.4375 13.203125 " clip-rule="nonzero"/></clipPath><clipPath id="37b430b6ca"><path d="M 0.171875 0.203125 L 60.238281 0.203125 L 60.238281 14.730469 L 0.171875 14.730469 Z M 0.171875 0.203125 " clip-rule="nonzero"/></clipPath><clipPath id="c5fee34d3a"><path d="M 7.4375 0.203125 L 52.96875 0.203125 C 56.980469 0.203125 60.234375 3.457031 60.234375 7.46875 C 60.234375 11.480469 56.980469 14.730469 52.96875 14.730469 L 7.4375 14.730469 C 3.425781 14.730469 0.171875 11.480469 0.171875 7.46875 C 0.171875 3.457031 3.425781 0.203125 7.4375 0.203125 Z M 7.4375 0.203125 " clip-rule="nonzero"/></clipPath><clipPath id="140f28f423"><rect x="0" width="61" y="0" height="15"/></clipPath><clipPath id="4129d4fc6a"><path d="M 37.171875 62.269531 L 97.269531 62.269531 L 97.269531 76.796875 L 37.171875 76.796875 Z M 37.171875 62.269531 " clip-rule="nonzero"/></clipPath><clipPath id="2b21047f2a"><path d="M 44.4375 62.269531 L 89.96875 62.269531 C 93.980469 62.269531 97.234375 65.519531 97.234375 69.53125 C 97.234375 73.542969 93.980469 76.796875 89.96875 76.796875 L 44.4375 76.796875 C 40.425781 76.796875 37.171875 73.542969 37.171875 69.53125 C 37.171875 65.519531 40.425781 62.269531 44.4375 62.269531 Z M 44.4375 62.269531 " clip-rule="nonzero"/></clipPath><clipPath id="3242cd6356"><path d="M 0.171875 0.269531 L 60.238281 0.269531 L 60.238281 14.796875 L 0.171875 14.796875 Z M 0.171875 0.269531 " clip-rule="nonzero"/></clipPath><clipPath id="d8f6e08497"><path d="M 7.4375 0.269531 L 52.96875 0.269531 C 56.980469 0.269531 60.234375 3.519531 60.234375 7.53125 C 60.234375 11.542969 56.980469 14.796875 52.96875 14.796875 L 7.4375 14.796875 C 3.425781 14.796875 0.171875 11.542969 0.171875 7.53125 C 0.171875 3.519531 3.425781 0.269531 7.4375 0.269531 Z M 7.4375 0.269531 " clip-rule="nonzero"/></clipPath><clipPath id="5ccc4018f6"><rect x="0" width="61" y="0" height="15"/></clipPath><clipPath id="046d5741fe"><path d="M 47.472656 33.398438 L 86.933594 33.398438 L 86.933594 56.601562 L 47.472656 56.601562 Z M 47.472656 33.398438 " clip-rule="nonzero"/></clipPath><clipPath id="3bbf474a1f"><path d="M 0.472656 0.398438 L 39.933594 0.398438 L 39.933594 23.601562 L 0.472656 23.601562 Z M 0.472656 0.398438 " clip-rule="nonzero"/></clipPath><clipPath id="477268b54e"><rect x="0" width="40" y="0" height="24"/></clipPath><clipPath id="e64762a88d"><path d="M 62.378906 40.582031 L 72.027344 40.582031 L 72.027344 50.230469 L 62.378906 50.230469 Z M 62.378906 40.582031 " clip-rule="nonzero"/></clipPath><clipPath id="7da8c93acd"><path d="M 67.203125 40.582031 C 64.539062 40.582031 62.378906 42.742188 62.378906 45.40625 C 62.378906 48.070312 64.539062 50.230469 67.203125 50.230469 C 69.867188 50.230469 72.027344 48.070312 72.027344 45.40625 C 72.027344 42.742188 69.867188 40.582031 67.203125 40.582031 Z M 67.203125 40.582031 " clip-rule="nonzero"/></clipPath><clipPath id="f6ed20d6c8"><path d="M 0.378906 0.582031 L 10.027344 0.582031 L 10.027344 10.230469 L 0.378906 10.230469 Z M 0.378906 0.582031 " clip-rule="nonzero"/></clipPath><clipPath id="28c6e98626"><path d="M 5.203125 0.582031 C 2.539062 0.582031 0.378906 2.742188 0.378906 5.40625 C 0.378906 8.070312 2.539062 10.230469 5.203125 10.230469 C 7.867188 10.230469 10.027344 8.070312 10.027344 5.40625 C 10.027344 2.742188 7.867188 0.582031 5.203125 0.582031 Z M 5.203125 0.582031 " clip-rule="nonzero"/></clipPath><clipPath id="48598330f8"><rect x="0" width="11" y="0" height="11"/></clipPath><clipPath id="e8ccfe8994"><path d="M 22.535156 38.683594 L 41.941406 38.683594 L 41.941406 52.128906 L 22.535156 52.128906 Z M 22.535156 38.683594 " clip-rule="nonzero"/></clipPath><clipPath id="6910f76f99"><path d="M 0.535156 0.683594 L 19.941406 0.683594 L 19.941406 14.128906 L 0.535156 14.128906 Z M 0.535156 0.683594 " clip-rule="nonzero"/></clipPath><clipPath id="190ff5be9c"><rect x="0" width="20" y="0" height="15"/></clipPath><clipPath id="90d569113f"><path d="M 92.332031 38.277344 L 111.738281 38.277344 L 111.738281 51.722656 L 92.332031 51.722656 Z M 92.332031 38.277344 " clip-rule="nonzero"/></clipPath><clipPath id="74a5827674"><path d="M 0.332031 0.277344 L 19.738281 0.277344 L 19.738281 13.722656 L 0.332031 13.722656 Z M 0.332031 0.277344 " clip-rule="nonzero"/></clipPath><clipPath id="9133e3b151"><rect x="0" width="20" y="0" height="14"/></clipPath><clipPath id="bb6032e5ca"><path d="M 0.785156 33.398438 L 24.800781 33.398438 L 24.800781 57.414062 L 0.785156 57.414062 Z M 0.785156 33.398438 " clip-rule="nonzero"/></clipPath><clipPath id="9f522ae368"><path d="M 12.792969 33.398438 C 6.160156 33.398438 0.785156 38.773438 0.785156 45.40625 C 0.785156 52.039062 6.160156 57.414062 12.792969 57.414062 C 19.425781 57.414062 24.800781 52.039062 24.800781 45.40625 C 24.800781 38.773438 19.425781 33.398438 12.792969 33.398438 Z M 12.792969 33.398438 " clip-rule="nonzero"/></clipPath><clipPath id="0f90151b26"><path d="M 0.785156 0.398438 L 24.800781 0.398438 L 24.800781 24.414062 L 0.785156 24.414062 Z M 0.785156 0.398438 " clip-rule="nonzero"/></clipPath><clipPath id="30c253467f"><path d="M 12.792969 0.398438 C 6.160156 0.398438 0.785156 5.773438 0.785156 12.40625 C 0.785156 19.039062 6.160156 24.414062 12.792969 24.414062 C 19.425781 24.414062 24.800781 19.039062 24.800781 12.40625 C 24.800781 5.773438 19.425781 0.398438 12.792969 0.398438 Z M 12.792969 0.398438 " clip-rule="nonzero"/></clipPath><clipPath id="e6b7b1ff4c"><rect x="0" width="25" y="0" height="25"/></clipPath><clipPath id="378199b7a5"><path d="M 109.582031 33.003906 L 133.59375 33.003906 L 133.59375 57.015625 L 109.582031 57.015625 Z M 109.582031 33.003906 " clip-rule="nonzero"/></clipPath><clipPath id="2021fd5f1f"><path d="M 121.585938 33.003906 C 114.957031 33.003906 109.582031 38.378906 109.582031 45.007812 C 109.582031 51.640625 114.957031 57.015625 121.585938 57.015625 C 128.21875 57.015625 133.59375 51.640625 133.59375 45.007812 C 133.59375 38.378906 128.21875 33.003906 121.585938 33.003906 Z M 121.585938 33.003906 " clip-rule="nonzero"/></clipPath><clipPath id="058aa9d127"><path d="M 0.582031 0.00390625 L 24.59375 0.00390625 L 24.59375 24.015625 L 0.582031 24.015625 Z M 0.582031 0.00390625 " clip-rule="nonzero"/></clipPath><clipPath id="16945e9bd6"><path d="M 12.585938 0.00390625 C 5.957031 0.00390625 0.582031 5.378906 0.582031 12.007812 C 0.582031 18.640625 5.957031 24.015625 12.585938 24.015625 C 19.21875 24.015625 24.59375 18.640625 24.59375 12.007812 C 24.59375 5.378906 19.21875 0.00390625 12.585938 0.00390625 Z M 12.585938 0.00390625 " clip-rule="nonzero"/></clipPath><clipPath id="ab884be165"><rect x="0" width="25" y="0" height="25"/></clipPath><clipPath id="6701928b9d"><path d="M 138 0 L 340.601562 0 L 340.601562 90 L 138 90 Z M 138 0 " clip-rule="nonzero"/></clipPath><clipPath id="c63c6dc08c"><rect x="0" width="203" y="0" height="90"/></clipPath><clipPath id="55a27ae974"><rect x="0" width="341" y="0" height="90"/></clipPath></defs><g transform="matrix(1, 0, 0, 1, 11, -0.00000000000000949)"><g clip-path="url(#55a27ae974)"><g clip-path="url(#22b38e5b9e)"><g clip-path="url(#0cc6a332cd)"><g transform="matrix(1, 0, 0, 1, 37, 13)"><g clip-path="url(#140f28f423)"><g clip-path="url(#37b430b6ca)"><g clip-path="url(#c5fee34d3a)"><path fill="#ffffff" d="M 0.171875 0.203125 L 60.210938 0.203125 L 60.210938 14.730469 L 0.171875 14.730469 Z M 0.171875 0.203125 " fill-opacity="1" fill-rule="nonzero"/></g></g></g></g></g></g><g clip-path="url(#4129d4fc6a)"><g clip-path="url(#2b21047f2a)"><g transform="matrix(1, 0, 0, 1, 37, 62)"><g clip-path="url(#5ccc4018f6)"><g clip-path="url(#3242cd6356)"><g clip-path="url(#d8f6e08497)"><path fill="#ffffff" d="M 0.171875 0.269531 L 60.210938 0.269531 L 60.210938 14.796875 L 0.171875 14.796875 Z M 0.171875 0.269531 " fill-opacity="1" fill-rule="nonzero"/></g></g></g></g></g></g><g clip-path="url(#046d5741fe)"><g transform="matrix(1, 0, 0, 1, 47, 33)"><g clip-path="url(#477268b54e)"><g clip-path="url(#3bbf474a1f)"><path fill="#ffffff" d="M 0.472656 0.398438 L 39.894531 0.398438 L 39.894531 23.601562 L 0.472656 23.601562 Z M 0.472656 0.398438 " fill-opacity="1" fill-rule="nonzero"/></g></g></g></g><g clip-path="url(#e64762a88d)"><g clip-path="url(#7da8c93acd)"><g transform="matrix(1, 0, 0, 1, 62, 40)"><g clip-path="url(#48598330f8)"><g clip-path="url(#f6ed20d6c8)"><g clip-path="url(#28c6e98626)"><path fill="#0c3954" d="M 0.378906 0.582031 L 10.027344 0.582031 L 10.027344 10.230469 L 0.378906 10.230469 Z M 0.378906 0.582031 " fill-opacity="1" fill-rule="nonzero"/></g></g></g></g></g></g><g clip-path="url(#e8ccfe8994)"><g transform="matrix(1, 0, 0, 1, 22, 38)"><g clip-path="url(#190ff5be9c)"><g clip-path="url(#6910f76f99)"><path fill="#ffffff" d="M 0.535156 0.683594 L 19.964844 0.683594 L 19.964844 14.128906 L 0.535156 14.128906 Z M 0.535156 0.683594 " fill-opacity="1" fill-rule="nonzero"/></g></g></g></g><g clip-path="url(#90d569113f)"><g transform="matrix(1, 0, 0, 1, 92, 38)"><g clip-path="url(#9133e3b151)"><g clip-path="url(#74a5827674)"><path fill="#ffffff" d="M 0.332031 0.277344 L 19.761719 0.277344 L 19.761719 13.722656 L 0.332031 13.722656 Z M 0.332031 0.277344 " fill-opacity="1" fill-rule="nonzero"/></g></g></g></g><g clip-path="url(#bb6032e5ca)"><g clip-path="url(#9f522ae368)"><g transform="matrix(1, 0, 0, 1, 0.000000000000001776, 33)"><g clip-path="url(#e6b7b1ff4c)"><g clip-path="url(#0f90151b26)"><g clip-path="url(#30c253467f)"><path fill="#ffffff" d="M 0.785156 0.398438 L 24.800781 0.398438 L 24.800781 24.414062 L 0.785156 24.414062 Z M 0.785156 0.398438 " fill-opacity="1" fill-rule="nonzero"/></g></g></g></g></g></g><g clip-path="url(#378199b7a5)"><g clip-path="url(#2021fd5f1f)"><g transform="matrix(1, 0, 0, 1, 109, 33)"><g clip-path="url(#ab884be165)"><g clip-path="url(#058aa9d127)"><g clip-path="url(#16945e9bd6)"><path fill="#ffffff" d="M 0.582031 0.00390625 L 24.59375 0.00390625 L 24.59375 24.015625 L 0.582031 24.015625 Z M 0.582031 0.00390625 " fill-opacity="1" fill-rule="nonzero"/></g></g></g></g></g></g><g clip-path="url(#6701928b9d)"><g transform="matrix(1, 0, 0, 1, 138, -0.00000000000000949)"><g clip-path="url(#c63c6dc08c)"><g fill="#ffffff" fill-opacity="1"><g transform="translate(0.193672, 75.333065)"><g><path d="M 1.125 0 L 7.359375 -64.5 L 29.21875 -64.5 L 35.375 0 L 23.125 0 L 22.234375 -10.4375 L 14.421875 -10.4375 L 13.671875 0 Z M 15.390625 -20.71875 L 21.25 -20.71875 L 18.390625 -53.546875 L 17.796875 -53.546875 Z M 15.390625 -20.71875 "/></g></g></g><g fill="#ffffff" fill-opacity="1"><g transform="translate(40.593908, 75.333065)"><g><path d="M 0.96875 0 L 7.890625 -34.25 L 2.40625 -64.578125 L 15.015625 -64.578125 L 18.390625 -42.359375 L 21.328125 -64.578125 L 34.015625 -64.578125 L 28.453125 -34.25 L 35.375 0 L 22.296875 0 L 18.25 -25.234375 L 14.125 0 Z M 0.96875 0 "/></g></g></g><g fill="#ffffff" fill-opacity="1"><g transform="translate(80.919045, 75.333065)"><g><path d="M 2.25 0 L 2.25 -64.5 L 14.71875 -64.5 L 14.71875 0 Z M 2.25 0 "/></g></g></g><g fill="#ffffff" fill-opacity="1"><g transform="translate(101.945195, 75.333065)"><g><path d="M 18.25 0.59375 C 13.039062 0.59375 9.082031 -0.992188 6.375 -4.171875 C 3.675781 -7.347656 2.328125 -11.816406 2.328125 -17.578125 L 2.328125 -48.28125 C 2.328125 -53.84375 3.675781 -58.035156 6.375 -60.859375 C 9.082031 -63.691406 13.039062 -65.109375 18.25 -65.109375 C 23.457031 -65.109375 27.410156 -63.691406 30.109375 -60.859375 C 32.816406 -58.035156 34.171875 -53.84375 34.171875 -48.28125 L 34.171875 -17.578125 C 34.171875 -11.765625 32.816406 -7.28125 30.109375 -4.125 C 27.410156 -0.976562 23.457031 0.59375 18.25 0.59375 Z M 18.25 -11.265625 C 19.394531 -11.265625 20.164062 -11.765625 20.5625 -12.765625 C 20.96875 -13.765625 21.171875 -15.164062 21.171875 -16.96875 L 21.171875 -48.515625 C 21.171875 -49.910156 20.984375 -51.046875 20.609375 -51.921875 C 20.234375 -52.796875 19.472656 -53.234375 18.328125 -53.234375 C 16.171875 -53.234375 15.09375 -51.609375 15.09375 -48.359375 L 15.09375 -16.890625 C 15.09375 -15.046875 15.316406 -13.644531 15.765625 -12.6875 C 16.222656 -11.738281 17.050781 -11.265625 18.25 -11.265625 Z M 18.25 -11.265625 "/></g></g></g><g fill="#ffffff" fill-opacity="1"><g transform="translate(142.420505, 75.333065)"><g><path d="M 2.859375 0 L 2.859375 -64.5 L 22.53125 -64.5 L 27.9375 -25.15625 L 33.34375 -64.5 L 53.171875 -64.5 L 53.171875 0 L 41.375 0 L 41.375 -46.484375 L 33.9375 0 L 22.375 0 L 14.5 -46.484375 L 14.5 0 Z M 2.859375 0 "/></g></g></g></g></g></g></g></g></svg>
