<svg xmlns="http://www.w3.org/2000/svg" xmlns:xlink="http://www.w3.org/1999/xlink" width="512" zoomAndPan="magnify" viewBox="0 0 384 383.999986" height="512" preserveAspectRatio="xMidYMid meet" version="1.0"><defs><clipPath id="a4a3911eaa"><path d="M 86.28125 1.089844 L 227.863281 1.089844 L 227.863281 35.316406 L 86.28125 35.316406 Z M 86.28125 1.089844 " clip-rule="nonzero"/></clipPath><clipPath id="324425c2e6"><path d="M 103.394531 1.089844 L 210.667969 1.089844 C 220.121094 1.089844 227.78125 8.753906 227.78125 18.203125 C 227.78125 27.65625 220.121094 35.316406 210.667969 35.316406 L 103.394531 35.316406 C 93.945312 35.316406 86.28125 27.65625 86.28125 18.203125 C 86.28125 8.753906 93.945312 1.089844 103.394531 1.089844 Z M 103.394531 1.089844 " clip-rule="nonzero"/></clipPath><clipPath id="1076a06472"><path d="M 0.28125 0.0898438 L 141.800781 0.0898438 L 141.800781 34.316406 L 0.28125 34.316406 Z M 0.28125 0.0898438 " clip-rule="nonzero"/></clipPath><clipPath id="f308ea5498"><path d="M 17.394531 0.0898438 L 124.667969 0.0898438 C 134.121094 0.0898438 141.78125 7.753906 141.78125 17.203125 C 141.78125 26.65625 134.121094 34.316406 124.667969 34.316406 L 17.394531 34.316406 C 7.945312 34.316406 0.28125 26.65625 0.28125 17.203125 C 0.28125 7.753906 7.945312 0.0898438 17.394531 0.0898438 Z M 17.394531 0.0898438 " clip-rule="nonzero"/></clipPath><clipPath id="007678c171"><rect x="0" width="142" y="0" height="35"/></clipPath><clipPath id="2d2cd61f81"><path d="M 86.28125 116.683594 L 227.863281 116.683594 L 227.863281 150.910156 L 86.28125 150.910156 Z M 86.28125 116.683594 " clip-rule="nonzero"/></clipPath><clipPath id="820766be6a"><path d="M 103.394531 116.683594 L 210.667969 116.683594 C 220.121094 116.683594 227.78125 124.34375 227.78125 133.796875 C 227.78125 143.246094 220.121094 150.910156 210.667969 150.910156 L 103.394531 150.910156 C 93.945312 150.910156 86.28125 143.246094 86.28125 133.796875 C 86.28125 124.34375 93.945312 116.683594 103.394531 116.683594 Z M 103.394531 116.683594 " clip-rule="nonzero"/></clipPath><clipPath id="52b1579a53"><path d="M 0.28125 0.683594 L 141.800781 0.683594 L 141.800781 34.910156 L 0.28125 34.910156 Z M 0.28125 0.683594 " clip-rule="nonzero"/></clipPath><clipPath id="956f6471c6"><path d="M 17.394531 0.683594 L 124.667969 0.683594 C 134.121094 0.683594 141.78125 8.34375 141.78125 17.796875 C 141.78125 27.246094 134.121094 34.910156 124.667969 34.910156 L 17.394531 34.910156 C 7.945312 34.910156 0.28125 27.246094 0.28125 17.796875 C 0.28125 8.34375 7.945312 0.683594 17.394531 0.683594 Z M 17.394531 0.683594 " clip-rule="nonzero"/></clipPath><clipPath id="2abf031d27"><rect x="0" width="142" y="0" height="35"/></clipPath><clipPath id="7ee3cdfc33"><path d="M 110.546875 48.671875 L 203.515625 48.671875 L 203.515625 103.328125 L 110.546875 103.328125 Z M 110.546875 48.671875 " clip-rule="nonzero"/></clipPath><clipPath id="bb15c903a3"><path d="M 0.546875 0.671875 L 93.515625 0.671875 L 93.515625 55.328125 L 0.546875 55.328125 Z M 0.546875 0.671875 " clip-rule="nonzero"/></clipPath><clipPath id="e164f85606"><rect x="0" width="94" y="0" height="56"/></clipPath><clipPath id="a1808ebd2f"><path d="M 145.664062 65.59375 L 168.398438 65.59375 L 168.398438 88.324219 L 145.664062 88.324219 Z M 145.664062 65.59375 " clip-rule="nonzero"/></clipPath><clipPath id="c779508072"><path d="M 157.03125 65.59375 C 150.753906 65.59375 145.664062 70.679688 145.664062 76.957031 C 145.664062 83.234375 150.753906 88.324219 157.03125 88.324219 C 163.308594 88.324219 168.398438 83.234375 168.398438 76.957031 C 168.398438 70.679688 163.308594 65.59375 157.03125 65.59375 Z M 157.03125 65.59375 " clip-rule="nonzero"/></clipPath><clipPath id="f434239360"><path d="M 0.664062 0.59375 L 23.398438 0.59375 L 23.398438 23.324219 L 0.664062 23.324219 Z M 0.664062 0.59375 " clip-rule="nonzero"/></clipPath><clipPath id="8f1e0b0d9b"><path d="M 12.03125 0.59375 C 5.753906 0.59375 0.664062 5.679688 0.664062 11.957031 C 0.664062 18.234375 5.753906 23.324219 12.03125 23.324219 C 18.308594 23.324219 23.398438 18.234375 23.398438 11.957031 C 23.398438 5.679688 18.308594 0.59375 12.03125 0.59375 Z M 12.03125 0.59375 " clip-rule="nonzero"/></clipPath><clipPath id="1cf9803073"><rect x="0" width="24" y="0" height="24"/></clipPath><clipPath id="a7ca046673"><path d="M 51.800781 61.121094 L 97.519531 61.121094 L 97.519531 92.792969 L 51.800781 92.792969 Z M 51.800781 61.121094 " clip-rule="nonzero"/></clipPath><clipPath id="f83166b726"><path d="M 0.800781 0.121094 L 46.519531 0.121094 L 46.519531 31.792969 L 0.800781 31.792969 Z M 0.800781 0.121094 " clip-rule="nonzero"/></clipPath><clipPath id="6518ed96bd"><rect x="0" width="47" y="0" height="32"/></clipPath><clipPath id="5638ef2a89"><path d="M 216.234375 60.164062 L 261.953125 60.164062 L 261.953125 91.835938 L 216.234375 91.835938 Z M 216.234375 60.164062 " clip-rule="nonzero"/></clipPath><clipPath id="2250c8239d"><path d="M 0.234375 0.164062 L 45.953125 0.164062 L 45.953125 31.835938 L 0.234375 31.835938 Z M 0.234375 0.164062 " clip-rule="nonzero"/></clipPath><clipPath id="77e59fb2d3"><rect x="0" width="46" y="0" height="32"/></clipPath><clipPath id="b479628220"><path d="M 0.558594 48.671875 L 57.132812 48.671875 L 57.132812 105.246094 L 0.558594 105.246094 Z M 0.558594 48.671875 " clip-rule="nonzero"/></clipPath><clipPath id="e03e20ba2a"><path d="M 28.84375 48.671875 C 13.222656 48.671875 0.558594 61.335938 0.558594 76.957031 C 0.558594 92.582031 13.222656 105.246094 28.84375 105.246094 C 44.46875 105.246094 57.132812 92.582031 57.132812 76.957031 C 57.132812 61.335938 44.46875 48.671875 28.84375 48.671875 Z M 28.84375 48.671875 " clip-rule="nonzero"/></clipPath><clipPath id="fb0fdf36fe"><path d="M 0.558594 0.671875 L 57.132812 0.671875 L 57.132812 57.246094 L 0.558594 57.246094 Z M 0.558594 0.671875 " clip-rule="nonzero"/></clipPath><clipPath id="ee8c8ba2ba"><path d="M 28.84375 0.671875 C 13.222656 0.671875 0.558594 13.335938 0.558594 28.957031 C 0.558594 44.582031 13.222656 57.246094 28.84375 57.246094 C 44.46875 57.246094 57.132812 44.582031 57.132812 28.957031 C 57.132812 13.335938 44.46875 0.671875 28.84375 0.671875 Z M 28.84375 0.671875 " clip-rule="nonzero"/></clipPath><clipPath id="e1516c61c9"><rect x="0" width="58" y="0" height="58"/></clipPath><clipPath id="baaa90c0a3"><path d="M 256.867188 47.734375 L 313.441406 47.734375 L 313.441406 104.308594 L 256.867188 104.308594 Z M 256.867188 47.734375 " clip-rule="nonzero"/></clipPath><clipPath id="18982b40e8"><path d="M 285.15625 47.734375 C 269.53125 47.734375 256.867188 60.398438 256.867188 76.019531 C 256.867188 91.644531 269.53125 104.308594 285.15625 104.308594 C 300.777344 104.308594 313.441406 91.644531 313.441406 76.019531 C 313.441406 60.398438 300.777344 47.734375 285.15625 47.734375 Z M 285.15625 47.734375 " clip-rule="nonzero"/></clipPath><clipPath id="fc66f9788b"><path d="M 0.867188 0.734375 L 57.441406 0.734375 L 57.441406 57.308594 L 0.867188 57.308594 Z M 0.867188 0.734375 " clip-rule="nonzero"/></clipPath><clipPath id="3557b52552"><path d="M 29.15625 0.734375 C 13.53125 0.734375 0.867188 13.398438 0.867188 29.019531 C 0.867188 44.644531 13.53125 57.308594 29.15625 57.308594 C 44.777344 57.308594 57.441406 44.644531 57.441406 29.019531 C 57.441406 13.398438 44.777344 0.734375 29.15625 0.734375 Z M 29.15625 0.734375 " clip-rule="nonzero"/></clipPath><clipPath id="351516e2c1"><rect x="0" width="58" y="0" height="58"/></clipPath><clipPath id="6d7e280ed0"><rect x="0" width="314" y="0" height="152"/></clipPath></defs><rect x="-38.4" width="460.8" fill="#ffffff" y="-38.399999" height="460.799983" fill-opacity="1"/><rect x="-38.4" width="460.8" fill="#0c3954" y="-38.399999" height="460.799983" fill-opacity="1"/><g transform="matrix(1, 0, 0, 1, 35, 116)"><g clip-path="url(#6d7e280ed0)"><g clip-path="url(#a4a3911eaa)"><g clip-path="url(#324425c2e6)"><g transform="matrix(1, 0, 0, 1, 86, 1)"><g clip-path="url(#007678c171)"><g clip-path="url(#1076a06472)"><g clip-path="url(#f308ea5498)"><path fill="#ffffff" d="M 0.28125 0.0898438 L 141.730469 0.0898438 L 141.730469 34.316406 L 0.28125 34.316406 Z M 0.28125 0.0898438 " fill-opacity="1" fill-rule="nonzero"/></g></g></g></g></g></g><g clip-path="url(#2d2cd61f81)"><g clip-path="url(#820766be6a)"><g transform="matrix(1, 0, 0, 1, 86, 116)"><g clip-path="url(#2abf031d27)"><g clip-path="url(#52b1579a53)"><g clip-path="url(#956f6471c6)"><path fill="#ffffff" d="M 0.28125 0.683594 L 141.730469 0.683594 L 141.730469 34.910156 L 0.28125 34.910156 Z M 0.28125 0.683594 " fill-opacity="1" fill-rule="nonzero"/></g></g></g></g></g></g><g clip-path="url(#7ee3cdfc33)"><g transform="matrix(1, 0, 0, 1, 110, 48)"><g clip-path="url(#e164f85606)"><g clip-path="url(#bb15c903a3)"><path fill="#ffffff" d="M 0.546875 0.671875 L 93.421875 0.671875 L 93.421875 55.328125 L 0.546875 55.328125 Z M 0.546875 0.671875 " fill-opacity="1" fill-rule="nonzero"/></g></g></g></g><g clip-path="url(#a1808ebd2f)"><g clip-path="url(#c779508072)"><g transform="matrix(1, 0, 0, 1, 145, 65)"><g clip-path="url(#1cf9803073)"><g clip-path="url(#f434239360)"><g clip-path="url(#8f1e0b0d9b)"><path fill="#0c3954" d="M 0.664062 0.59375 L 23.398438 0.59375 L 23.398438 23.324219 L 0.664062 23.324219 Z M 0.664062 0.59375 " fill-opacity="1" fill-rule="nonzero"/></g></g></g></g></g></g><g clip-path="url(#a7ca046673)"><g transform="matrix(1, 0, 0, 1, 51, 61)"><g clip-path="url(#6518ed96bd)"><g clip-path="url(#f83166b726)"><path fill="#ffffff" d="M 0.800781 0.121094 L 46.574219 0.121094 L 46.574219 31.792969 L 0.800781 31.792969 Z M 0.800781 0.121094 " fill-opacity="1" fill-rule="nonzero"/></g></g></g></g><g clip-path="url(#5638ef2a89)"><g transform="matrix(1, 0, 0, 1, 216, 60)"><g clip-path="url(#77e59fb2d3)"><g clip-path="url(#2250c8239d)"><path fill="#ffffff" d="M 0.234375 0.164062 L 46.011719 0.164062 L 46.011719 31.835938 L 0.234375 31.835938 Z M 0.234375 0.164062 " fill-opacity="1" fill-rule="nonzero"/></g></g></g></g><g clip-path="url(#b479628220)"><g clip-path="url(#e03e20ba2a)"><g transform="matrix(1, 0, 0, 1, 0, 48)"><g clip-path="url(#e1516c61c9)"><g clip-path="url(#fb0fdf36fe)"><g clip-path="url(#ee8c8ba2ba)"><path fill="#ffffff" d="M 0.558594 0.671875 L 57.132812 0.671875 L 57.132812 57.246094 L 0.558594 57.246094 Z M 0.558594 0.671875 " fill-opacity="1" fill-rule="nonzero"/></g></g></g></g></g></g><g clip-path="url(#baaa90c0a3)"><g clip-path="url(#18982b40e8)"><g transform="matrix(1, 0, 0, 1, 256, 47)"><g clip-path="url(#351516e2c1)"><g clip-path="url(#fc66f9788b)"><g clip-path="url(#3557b52552)"><path fill="#ffffff" d="M 0.867188 0.734375 L 57.441406 0.734375 L 57.441406 57.308594 L 0.867188 57.308594 Z M 0.867188 0.734375 " fill-opacity="1" fill-rule="nonzero"/></g></g></g></g></g></g></g></g></svg>